<svg xmlns="http://www.w3.org/2000/svg" width="556" height="556" viewBox="262 262 556 556"><path fill="#131314" d="m314.386 262.746 2.416-.01c2.658-.008 5.315-.003 7.973.003l5.791-.011c5.295-.01 10.59-.008 15.883-.004 5.714.002 11.428-.007 17.142-.014 11.19-.013 22.38-.015 33.57-.012 9.095.001 18.19 0 27.286-.005l3.922-.001 7.89-.004c17.656-.008 35.313-.012 52.97-.008h2.09l10.495.003h2.105l4.215.002c21.86.005 43.72-.003 65.58-.021 24.57-.02 49.14-.032 73.71-.028 13.005.002 26.01 0 39.016-.014 11.072-.012 22.143-.014 33.215-.002 5.647.006 11.295.007 16.943-.005 5.173-.01 10.346-.007 15.518.007 1.87.002 3.738 0 5.607-.008 17.549-.07 31.8 2.498 45.02 14.991 3.31 3.511 5.876 7.21 8.257 11.395l1.18 2.027c4.009 7.39 5.125 15.042 5.074 23.359l.01 2.416c.008 2.658.003 5.315-.003 7.973l.011 5.791c.01 5.295.008 10.59.004 15.883-.002 5.714.007 11.428.014 17.142.013 11.19.015 22.38.012 33.57-.001 9.095 0 18.19.005 27.286l.001 3.922.004 7.89c.008 17.656.012 35.313.008 52.97v2.09a655420.667 655420.667 0 0 1-.005 16.815c-.005 21.86.003 43.72.021 65.58.02 24.57.032 49.14.028 73.71-.002 13.005 0 26.01.014 39.016.012 11.072.014 22.143.002 33.215-.006 5.647-.007 11.295.005 16.943.01 5.173.007 10.346-.007 15.518-.002 1.87 0 3.738.008 5.607.068 16.967-2.188 31.4-14.288 44.246-10.566 10.23-22.817 15.375-37.484 15.285l-2.416.01c-2.658.008-5.315.003-7.973-.003l-5.791.011c-5.295.01-10.59.008-15.883.004-5.714-.002-11.428.007-17.142.014-11.19.013-22.38.015-33.57.012-9.095-.001-18.19 0-27.286.005l-3.922.001-7.89.004c-17.656.008-35.313.012-52.97.008h-2.09l-10.495-.003h-2.105l-4.215-.002c-21.86-.005-43.72.003-65.58.021-24.57.02-49.14.032-73.71.028-13.005-.002-26.01 0-39.016.014-11.072.012-22.143.014-33.215.002-5.647-.006-11.295-.007-16.943.005-5.173.01-10.346.007-15.518-.007-1.87-.002-3.738 0-5.607.008-17.549.07-31.8-2.498-45.02-14.991-3.31-3.511-5.876-7.21-8.257-11.395l-1.18-2.027c-4.005-7.383-5.125-15.03-5.074-23.34l-.01-2.41c-.008-2.651-.003-5.302.003-7.954l-.011-5.776a5976.21 5976.21 0 0 1-.004-15.843c.002-5.7-.007-11.4-.014-17.099-.013-11.162-.015-22.324-.012-33.486a40882.175 40882.175 0 0 0-.01-39.005 78819.932 78819.932 0 0 1-.005-65.402v-2.1l.002-4.205c.005-21.806-.003-43.612-.021-65.418-.02-24.511-.032-49.022-.028-73.534.002-12.973 0-25.947-.014-38.92-.012-11.046-.014-22.09-.002-33.136.006-5.634.007-11.267-.005-16.901-.01-5.162-.007-10.322.007-15.484.002-1.863 0-3.726-.008-5.59-.07-17.38 2.196-32.355 14.546-45.597 10.484-10.105 22.73-15.115 37.226-15.027Z"/><path fill="#2FA4FD" d="m537.52 362.727 2.936-.038c22.028-.23 43.024.112 64.544 5.311l2.834.665C626.248 373.135 644.093 381.25 659 393l1.72 1.35c20.017 15.898 37.44 39.346 43.28 64.65-4.599 2.02-9.333 3.217-14.184 4.46l-2.702.703c-2.85.74-5.7 1.477-8.552 2.212-3.728.964-7.456 1.93-11.183 2.898l-2.725.706a500.826 500.826 0 0 0-18.959 5.344C643 476 643 476 639 476l-.883-2.273C628.872 450.642 613.59 436.77 591 427c-12.991-4.92-25.866-6.374-39.687-6.312l-1.995.006c-25.383.133-47.025 6.293-66.318 23.306-28.538 30.598-31.257 71.22-30 111 .34 6.714 1.021 13.35 2 20l.555 3.879C458.802 597.782 466.6 616.318 479 631l1.457 1.86C489.941 644.667 504.69 652.651 519 657l2.773.867c25.607 7.532 56.35 4.498 79.977-7.68 5.548-3.182 10.442-6.984 15.25-11.187l1.828-1.574C630.448 626.648 638.382 611.635 644 597c5.112.561 9.561 1.755 14.348 3.66l2.079.805c2.214.86 4.425 1.728 6.635 2.597 3.051 1.189 6.104 2.372 9.157 3.555l2.28.886c7.385 2.86 14.83 5.548 22.316 8.136l2.47.873 2.121.733C707 619 707 619 708 621a89.318 89.318 0 0 1-2.812 7.063l-.954 2.145c-17.382 38.046-47.385 65.021-86.422 79.605-7.506 2.516-15.055 4.621-22.812 6.187l-2.277.462c-13.953 2.656-27.945 2.828-42.098 2.85l-2.705.011c-16.676.036-32.519-1.285-48.732-5.448l-3.621-.92c-38.818-10.216-71.882-33.522-92.378-68.232C392.447 625.99 386.082 606.143 382 585l-.505-2.5c-5.555-28.666-4.738-61.826.505-90.5l.438-2.463C387.072 464.35 396.688 438.951 413 419l1.474-1.823C420.144 410.216 425.862 403.5 433 398l1.492-1.188C454.696 380.792 478.545 370.286 504 366l3.125-.578c10.087-1.801 20.156-2.573 30.395-2.695Z"/><path fill="#131B23" d="M486 441c1.46 2.647 2 3.894 2 7l-1.715.332-2.223.48-2.214.458L480 450l-1 3c-2.062.688-2.062.688-4 1 1.37-2.95 2.878-5.525 5-8h2l.875-1.937C484 442 484 442 486 441Z"/><path fill="#030303" d="M281 275v3l-3 1c-1.045 1.84-1.045 1.84-2 4a130.521 130.521 0 0 1-3.125 4.25l-1.633 2.14L270 291l-1-2c7.429-11.714 7.429-11.714 12-14Z"/><path fill="#111E2A" d="m624 708-1.937.75c-2.553 1.216-2.553 1.216-3.063 5.25l-8-2c2.437-1.625 4.373-2.657 7.063-3.687l2.097-.825C622 707 622 707 624 708Z"/><path fill="#101820" d="M635 466c3 3.625 3 3.625 3 7h-2v2h-2c-.625-2.812-.625-2.812-1-6l2-3Z"/><path fill="#0F1E2B" d="m413 416 2 2-6 8-2-4 6-6Z"/><path fill="#111C25" d="m471 458 2 4-2 3h-2v2l-3 1c1.335-3.594 2.96-6.755 5-10Z"/><path fill="#2F9EF1" d="m472 450 4 2-4 6-2-2c.556-4.556.556-4.556 2-6Z"/><path fill="#0E1F2D" d="M517 426c-3.203 2.834-5.78 3.52-10 4l-1-2c7.429-3.571 7.429-3.571 11-2Z"/><path fill="#10181F" d="m434 389 1 2 3 1-1 4h-4l1-2-2-1 2-4Z"/><path fill="#369EEC" d="M398 633h4v4h2v2h-2l-1 2c-3-5.75-3-5.75-3-8Z"/><path fill="#101A22" d="m624 449 5 5-4 3c-2-3-2-3-1.625-5.687L624 449Z"/><path fill="#3596E2" d="m632 621 1 4c-1.215 1.703-1.215 1.703-2.937 3.25l-1.715 1.578L627 631l-2-1 7-9Z"/><path fill="#329BEA" d="M479 443c2.188.313 2.188.313 4 1l-5 6-2-4c1.25-1.562 1.25-1.562 3-3Z"/><path fill="#369DEB" d="m482 374-1.875.875c-2.258 1.062-2.258 1.062-4.125 3.125-2.125-.375-2.125-.375-4-1 3.181-3.484 5.432-4.418 10-3Z"/><path fill="#12212B" d="m514 649 4 2-4 1v4l-4-2 4-5Z"/><path fill="#2E99EA" d="m594 714 1 2-10 1v-2c2.957-1.478 5.742-1.06 9-1Z"/><path fill="#3498E3" d="m585 658-1 3-5 1-1-3c2.49-.687 4.379-1 7-1Z"/></svg>