<?xml version="1.0" encoding="UTF-8" standalone="no" ?>
<!DOCTYPE svg PUBLIC "-//W3C//DTD SVG 1.1//EN" "http://www.w3.org/Graphics/SVG/1.1/DTD/svg11.dtd">
<svg xmlns="http://www.w3.org/2000/svg" xmlns:xlink="http://www.w3.org/1999/xlink" version="1.1" width="36" height="36" viewBox="0 0 36 36" xml:space="preserve">
<desc>Created with Fabric.js 5.3.0</desc>
<defs>
</defs>
<g transform="matrix(1 0 0 1 18 18)" id="J-kpOQZ_a70CRYa6U8NOU"  >
<g style=""   >
		<g transform="matrix(0.999999375 0 0 0.999999375 -0.0005140634 -0.0005149997)" id="gH-ACXb4Y9A2SA1yOS2wI"  >
<radialGradient id="SVGID_6" gradientUnits="userSpaceOnUse" gradientTransform="matrix(1 0 0 1 0 0)"  cx="19.38" cy="42.035" r="44.899" fx="19.38" fy="42.035">
<stop offset="0%" style="stop-color:rgb(255,221,85);stop-opacity: 1"/>
<stop offset="32.800000000000004%" style="stop-color:rgb(255,84,63);stop-opacity: 1"/>
<stop offset="34.8%" style="stop-color:rgb(252,82,69);stop-opacity: 1"/>
<stop offset="50.4%" style="stop-color:rgb(230,71,113);stop-opacity: 1"/>
<stop offset="64.3%" style="stop-color:rgb(213,62,145);stop-opacity: 1"/>
<stop offset="76.1%" style="stop-color:rgb(204,57,164);stop-opacity: 1"/>
<stop offset="84.1%" style="stop-color:rgb(200,55,171);stop-opacity: 1"/>
</radialGradient>
<path style="stroke: none; stroke-width: 1; stroke-dasharray: none; stroke-linecap: butt; stroke-dashoffset: 0; stroke-linejoin: miter; stroke-miterlimit: 10; fill: url(#SVGID_6); fill-rule: nonzero; opacity: 1;"  transform=" translate(-23.9995009363, -23.9995)" d="M 34.017 41.99 L 14.017000000000003 42.009 C 9.617000000000003 42.013 6.014000000000003 38.417 6.009000000000004 34.017 L 5.990000000000004 14.017000000000003 C 5.986000000000004 9.617000000000003 9.582000000000004 6.014000000000003 13.982000000000003 6.009000000000004 L 33.982 5.990000000000004 C 38.382 5.986000000000004 41.985 9.582000000000004 41.989999999999995 13.982000000000003 L 42.00899999999999 33.982 C 42.013999999999996 38.382999999999996 38.416999999999994 41.986 34.016999999999996 41.989999999999995 z" stroke-linecap="round" />
</g>
		<g transform="matrix(0.999999375 0 0 0.999999375 -0.0005140634 -0.0005149997)" id="mMIWkoF3l3lLU2SIUHBPX"  >
<radialGradient id="SVGID_7" gradientUnits="userSpaceOnUse" gradientTransform="matrix(1 0 0 1 0 0)"  cx="11.786" cy="5.5403" r="29.813" fx="11.786" fy="5.5403">
<stop offset="0%" style="stop-color:rgb(65,104,201);stop-opacity: 1"/>
<stop offset="99.9%" style="stop-color:rgb(65,104,201);stop-opacity: 0"/>
</radialGradient>
<path style="stroke: none; stroke-width: 1; stroke-dasharray: none; stroke-linecap: butt; stroke-dashoffset: 0; stroke-linejoin: miter; stroke-miterlimit: 10; fill: url(#SVGID_7); fill-rule: nonzero; opacity: 1;"  transform=" translate(-23.9995009363, -23.9995)" d="M 34.017 41.99 L 14.017000000000003 42.009 C 9.617000000000003 42.013 6.014000000000003 38.417 6.009000000000004 34.017 L 5.990000000000004 14.017000000000003 C 5.986000000000004 9.617000000000003 9.582000000000004 6.014000000000003 13.982000000000003 6.009000000000004 L 33.982 5.990000000000004 C 38.382 5.986000000000004 41.985 9.582000000000004 41.989999999999995 13.982000000000003 L 42.00899999999999 33.982 C 42.013999999999996 38.382999999999996 38.416999999999994 41.986 34.016999999999996 41.989999999999995 z" stroke-linecap="round" />
</g>
		<g transform="matrix(0.999999375 0 0 0.999999375 -0.000015 -0.000015)" id="FfJuCVwQ_TjoVCLgjrDO0"  >
<path style="stroke: none; stroke-width: 1; stroke-dasharray: none; stroke-linecap: butt; stroke-dashoffset: 0; stroke-linejoin: miter; stroke-miterlimit: 10; fill: rgb(255,255,255); fill-rule: nonzero; opacity: 1;"  transform=" translate(-24, -24)" d="M 24 31 C 20.141 31 17 27.86 17 24 C 17 20.14 20.141 17 24 17 C 27.859 17 31 20.14 31 24 C 31 27.86 27.859 31 24 31 z M 24 19 C 21.243 19 19 21.243 19 24 C 19 26.757 21.243 29 24 29 C 26.757 29 29 26.757 29 24 C 29 21.243 26.757 19 24 19 z" stroke-linecap="round" />
</g>
		<g transform="matrix(0.999999375 0 0 0.999999375 7.4999803125 -7.5000103125)" id="zotHYGfu3arzGmOr-NWP7"  >
<path style="stroke: none; stroke-width: 1; stroke-dasharray: none; stroke-linecap: butt; stroke-dashoffset: 0; stroke-linejoin: miter; stroke-miterlimit: 4; fill: rgb(255,255,255); fill-rule: nonzero; opacity: 1;"  transform=" translate(-1.5, -1.5)" d="M 0 1.5 C 0 0.67157 0.67157 0 1.5 0 C 2.32843 0 3 0.67157 3 1.5 C 3 2.32843 2.32843 3 1.5 3 C 0.67157 3 0 2.32843 0 1.5 z" stroke-linecap="round" />
</g>
		<g transform="matrix(0.999999375 0 0 0.999999375 -0.000015 -0.000015)" id="jgONI4dHACPWzDEglZRf5"  >
<path style="stroke: none; stroke-width: 1; stroke-dasharray: none; stroke-linecap: butt; stroke-dashoffset: 0; stroke-linejoin: miter; stroke-miterlimit: 10; fill: rgb(255,255,255); fill-rule: nonzero; opacity: 1;"  transform=" translate(-24, -24)" d="M 30 37 L 18 37 C 14.141 37 11 33.86 11 30 L 11 18 C 11 14.14 14.141 11 18 11 L 30 11 C 33.859 11 37 14.14 37 18 L 37 30 C 37 33.86 33.859 37 30 37 z M 18 13 C 15.243 13 13 15.243 13 18 L 13 30 C 13 32.757 15.243 35 18 35 L 30 35 C 32.757 35 35 32.757 35 30 L 35 18 C 35 15.243 32.757 13 30 13 z" stroke-linecap="round" />
</g>
</g>
</g>
</svg>