<?xml version="1.0" encoding="UTF-8" standalone="no" ?>
<!DOCTYPE svg PUBLIC "-//W3C//DTD SVG 1.1//EN" "http://www.w3.org/Graphics/SVG/1.1/DTD/svg11.dtd">
<svg xmlns="http://www.w3.org/2000/svg" xmlns:xlink="http://www.w3.org/1999/xlink" version="1.1" width="19" height="19" viewBox="0 0 19 19" xml:space="preserve">
<desc>Created with Fabric.js 4.6.0</desc>
<defs>
</defs>
<g transform="matrix(1 0 0 1 9.52 9.52)" id="-OR50fSkCWg8HOc1Q3tcm"  >
<path style="stroke: none; stroke-width: 1; stroke-dasharray: none; stroke-linecap: butt; stroke-dashoffset: 0; stroke-linejoin: miter; stroke-miterlimit: 4; fill: rgb(191,200,211); fill-rule: nonzero; opacity: 1;" vector-effect="non-scaling-stroke"  transform=" translate(0, 0)" d="M -7 -9 C -8.09306 -9 -9 -8.09306 -9 -7 L -9 7 C -9 8.09306 -8.09306 9 -7 9 L 7 9 C 8.09306 9 9 8.09306 9 7 L 9 0 L 7 0 L 7 7 L -7 7 L -7 -7 L 0 -7 L 0 -9 z M 2 -9 L 2 -7 L 5.58594 -7 L -3.7070300000000005 2.2929700000000004 L -2.2929700000000004 3.7070300000000005 L 7 -5.58594 L 7 -2 L 9 -2 L 9 -9 z" stroke-linecap="round" />
</g>
</svg>