<svg  xmlns="http://www.w3.org/2000/svg"
 width="256.000000pt" height="256.000000pt" viewBox="0 0 256.000000 256.000000"
 preserveAspectRatio="xMidYMid meet">
<g transform="translate(0.000000,256.000000) scale(0.100000,-0.100000)"
fill="#e2e6eb" stroke="none">
<path d="M940 1941 c-82 -26 -109 -52 -260 -250 l-121 -158 -197 -53 c-108
-29 -213 -61 -233 -71 -48 -24 -105 -89 -118 -136 -17 -59 -14 -242 4 -295 29
-82 116 -148 197 -148 42 0 44 -1 66 -50 46 -100 132 -160 243 -168 125 -9
231 53 284 163 l26 55 434 0 434 0 26 -55 c32 -67 100 -128 167 -151 66 -22
167 -15 226 15 58 29 117 93 138 147 l17 44 59 0 c68 0 117 21 166 71 51 53
64 109 60 262 -3 122 -5 136 -30 177 -34 58 -63 79 -190 135 -56 26 -110 54
-119 63 -9 9 -53 78 -99 152 -94 152 -125 190 -190 228 l-45 27 -460 2 c-253
1 -471 -2 -485 -6z m912 -103 c54 -16 84 -51 195 -228 53 -85 104 -159 112
-165 9 -5 69 -34 135 -64 154 -71 156 -74 156 -239 0 -138 -10 -171 -61 -197
-17 -9 -48 -15 -72 -13 -37 3 -42 6 -48 33 -25 121 -154 225 -279 225 -127 0
-249 -94 -283 -217 l-11 -43 -432 0 -432 0 -6 33 c-10 52 -63 135 -108 167
-168 122 -417 33 -457 -165 -8 -36 -44 -45 -90 -20 -53 27 -66 65 -66 190 0
98 2 113 22 141 28 39 34 41 268 104 105 28 198 54 208 56 9 3 80 88 157 188
136 179 161 203 225 219 46 11 828 7 867 -5z m-1198 -791 c86 -66 99 -185 29
-268 -82 -97 -247 -79 -302 34 -46 95 -18 190 74 249 47 30 150 22 199 -15z
m1414 19 c131 -69 137 -254 10 -326 -74 -42 -169 -29 -225 32 -26 28 -53 89
-53 120 0 71 43 142 102 171 41 20 130 22 166 3z"/>
</g>
</svg>
